<svg xmlns="http://www.w3.org/2000/svg" viewBox="0 0 320.21 149.73"><defs><style>.cls-1{fill:#9dc182;}.cls-2{fill:#213b1d;}.cls-3{fill:#fff;}.cls-4{isolation:isolate;}</style></defs><g id="Layer_2" data-name="Layer 2"><g id="Layer_1-2" data-name="Layer 1"><path class="cls-1" d="M245.34,0H71.27V.09a74.87,74.87,0,0,0,0,149.56v.07H245.34A74.87,74.87,0,1,0,245.34,0Z"/><path class="cls-2" d="M149.31,22.2c3.34,0,5.36,2.37,5.36,6.13s-2.06,6.11-5.36,6.11h-4.12a.17.17,0,0,1-.19-.19V22.4a.18.18,0,0,1,.19-.2ZM147,32.67h2.33c2.07,0,3.32-1.59,3.32-4.34S151.38,24,149.31,24H147Z"/><path class="cls-2" d="M162.27,34.4a7.28,7.28,0,0,1-1.8.23c-2.65,0-4.15-1.72-4.15-4.43s1.52-4.43,4.08-4.43c2.12,0,3.4,1.05,3.4,2.79,0,1.34-.83,2.11-2.59,2.38l-2.76.42a1.87,1.87,0,0,0,2,1.5,4.9,4.9,0,0,0,1.39-.17l.77-.2a.19.19,0,0,1,.25.14l.35,1.32a.18.18,0,0,1-.14.24Zm-1.36-5c.62-.1,1-.38,1-.84,0-.7-.55-1.07-1.5-1.07-1.16,0-2,.72-2.09,2.33Z"/><path class="cls-2" d="M167.69,30.67c-1.46-.36-2.15-1.12-2.15-2.38,0-1.57,1.18-2.52,3.22-2.52a9.17,9.17,0,0,1,2.18.28l.77.2a.18.18,0,0,1,.15.24l-.37,1.31a.18.18,0,0,1-.25.14l-.77-.21a6.85,6.85,0,0,0-1.71-.21c-.81,0-1.28.3-1.28.77s.24.65.79.81l1.76.45c1.53.39,2.21,1.18,2.21,2.44,0,1.64-1.23,2.64-3.3,2.64a9.78,9.78,0,0,1-2.7-.37l-.68-.19a.18.18,0,0,1-.14-.25l.4-1.31a.17.17,0,0,1,.23-.12l.63.17a8.83,8.83,0,0,0,2.26.3c.86,0,1.35-.33,1.35-.87s-.25-.69-.83-.86Z"/><path class="cls-2" d="M176.55,34.25a.17.17,0,0,1-.19.19h-1.57a.17.17,0,0,1-.19-.19V27.68h-.86a.18.18,0,0,1-.2-.19V26.14a.18.18,0,0,1,.2-.19h2.62a.17.17,0,0,1,.19.19Zm0-11.33a1.07,1.07,0,0,1-1.16,1.19,1.18,1.18,0,1,1,0-2.36A1.07,1.07,0,0,1,176.53,22.92Z"/><path class="cls-2" d="M180.65,36.43a6.1,6.1,0,0,0,1.51.19,2.4,2.4,0,0,0,2.64-1.87c0-.77.07-.71.09-1.08,0-.13-.09-.21-.25-.06a3.19,3.19,0,0,1-2.42,1c-2.33,0-3.73-1.72-3.73-4.39s1.53-4.47,4.09-4.47a5.81,5.81,0,0,1,2.17.41l1.57.64a.21.21,0,0,1,.15.21v7.34c0,2.59-1.53,4-4.22,4a8,8,0,0,1-1.92-.23l-.86-.25a.17.17,0,0,1-.14-.24l.41-1.3a.17.17,0,0,1,.22-.12ZM184,27.82a3.33,3.33,0,0,0-1.42-.3c-1.36,0-2.15,1-2.15,2.66s.72,2.68,2,2.68,2.08-1,2.08-2.64V28.07Z"/><path class="cls-2" d="M190.17,26.82c.1.21.21.2.4,0A3.18,3.18,0,0,1,193,25.77a3,3,0,0,1,3.22,3.31v5.17a.17.17,0,0,1-.19.19h-1.57a.17.17,0,0,1-.19-.19v-5c0-1.1-.59-1.77-1.53-1.77-1.31,0-2.06.95-2.06,2.65v4.08a.18.18,0,0,1-.2.19h-1.56a.18.18,0,0,1-.2-.19V26.14a.18.18,0,0,1,.2-.19h.88a.19.19,0,0,1,.21.17Z"/><path class="cls-2" d="M207,22.2c2.67,0,4.24,1.46,4.24,3.89,0,2.59-1.78,4-5,4h-1.9v4.12a.17.17,0,0,1-.19.19h-1.61a.17.17,0,0,1-.19-.19V22.4a.18.18,0,0,1,.19-.2Zm-2.69,6.18h1.9c2,0,3-.82,3-2.29A2,2,0,0,0,207,24h-2.69Z"/><path class="cls-2" d="M218.19,27.33a.18.18,0,0,1-.2.19c-1.91.09-2.76,1.42-2.76,4.64v2.09a.17.17,0,0,1-.19.19h-1.57a.17.17,0,0,1-.19-.19V26.14a.17.17,0,0,1,.19-.19h.88a.2.2,0,0,1,.23.16l.28,1c.11.2.2.23.35.06A3.31,3.31,0,0,1,218,25.77a.18.18,0,0,1,.2.2Z"/><path class="cls-2" d="M222.78,34.25a.18.18,0,0,1-.2.19H221a.17.17,0,0,1-.19-.19V27.68H220a.17.17,0,0,1-.19-.19V26.14A.17.17,0,0,1,220,26h2.62a.18.18,0,0,1,.2.19Zm0-11.33a1.07,1.07,0,0,1-1.16,1.19,1.18,1.18,0,1,1,0-2.36A1.07,1.07,0,0,1,222.76,22.92Z"/><path class="cls-2" d="M226.58,26.82c.1.21.21.2.4,0a3.18,3.18,0,0,1,2.43-1.07,3,3,0,0,1,3.22,3.31v5.17a.17.17,0,0,1-.19.19h-1.57a.17.17,0,0,1-.19-.19v-5c0-1.1-.58-1.77-1.53-1.77-1.31,0-2.06.95-2.06,2.65v4.08a.18.18,0,0,1-.2.19h-1.56a.18.18,0,0,1-.2-.19V26.14a.18.18,0,0,1,.2-.19h.88a.19.19,0,0,1,.21.17Z"/><path class="cls-2" d="M240.28,34.4a6.49,6.49,0,0,1-1.64.23c-2.69,0-4.16-1.72-4.16-4.45s1.46-4.41,4.22-4.41a5.7,5.7,0,0,1,1.51.21l.76.21a.19.19,0,0,1,.14.25l-.41,1.31a.16.16,0,0,1-.23.12l-.59-.15a4.09,4.09,0,0,0-1.18-.2c-1.57,0-2.29,1-2.29,2.65s.76,2.69,2.25,2.69a5.3,5.3,0,0,0,1.3-.19l.58-.18a.19.19,0,0,1,.25.13l.41,1.31a.18.18,0,0,1-.14.24Z"/><path class="cls-2" d="M245.77,34.25a.17.17,0,0,1-.19.19H244a.17.17,0,0,1-.19-.19V27.68H243a.17.17,0,0,1-.19-.19V26.14A.17.17,0,0,1,243,26h2.63a.17.17,0,0,1,.19.19Zm0-11.33a1.07,1.07,0,0,1-1.16,1.19,1.18,1.18,0,1,1,0-2.36A1.07,1.07,0,0,1,245.75,22.92Z"/><path class="cls-2" d="M249.6,26.84c.07.19.21.18.34,0a3.12,3.12,0,0,1,2.46-1.09c2.31,0,3.69,1.7,3.69,4.41s-1.47,4.45-3.94,4.45a3.75,3.75,0,0,1-1.6-.33l-.47-.21V38a.18.18,0,0,1-.2.19h-1.56a.18.18,0,0,1-.2-.19V26.14a.18.18,0,0,1,.2-.19h.88a.18.18,0,0,1,.21.16Zm1,5.72a3.2,3.2,0,0,0,1.44.3c1.36,0,2.13-1,2.13-2.68s-.77-2.66-2.08-2.66-2,1.09-2,2.61v2.19Z"/><path class="cls-2" d="M260,32.39c0,.3.12.47.35.47h.13c.12,0,.19,0,.24.11l.53,1.24a.18.18,0,0,1-.09.26,2,2,0,0,1-.81.16,2.08,2.08,0,0,1-2.3-2.24V22.08a.17.17,0,0,1,.19-.19h1.57a.17.17,0,0,1,.19.19Z"/><path class="cls-2" d="M268.28,34.4a7.27,7.27,0,0,1-1.79.23c-2.66,0-4.15-1.72-4.15-4.43s1.51-4.43,4.08-4.43c2.11,0,3.39,1.05,3.39,2.79,0,1.34-.82,2.11-2.58,2.38l-2.76.42a1.86,1.86,0,0,0,2,1.5,4.9,4.9,0,0,0,1.39-.17l.78-.2a.18.18,0,0,1,.24.14l.35,1.32a.17.17,0,0,1-.14.24Zm-1.35-5c.62-.1.95-.38.95-.84,0-.7-.55-1.07-1.5-1.07-1.16,0-1.95.72-2.09,2.33Z"/><path class="cls-2" d="M273.7,30.67c-1.46-.36-2.14-1.12-2.14-2.38,0-1.57,1.17-2.52,3.21-2.52a9.19,9.19,0,0,1,2.19.28l.77.2a.17.17,0,0,1,.14.24l-.37,1.31a.17.17,0,0,1-.24.14l-.78-.21a6.79,6.79,0,0,0-1.71-.21c-.8,0-1.28.3-1.28.77s.25.65.79.81l1.76.45c1.53.39,2.22,1.18,2.22,2.44,0,1.64-1.23,2.64-3.31,2.64a9.71,9.71,0,0,1-2.69-.37l-.69-.19a.19.19,0,0,1-.14-.25l.41-1.31a.16.16,0,0,1,.22-.12l.64.17a8.82,8.82,0,0,0,2.25.3c.86,0,1.36-.33,1.36-.87s-.25-.69-.83-.86Z"/><path class="cls-2" d="M155.26,50a6.34,6.34,0,0,1,1.91-.27c2.38,0,3.84,1.23,3.84,3.35v5.13a.17.17,0,0,1-.19.19h-.88a.21.21,0,0,1-.23-.16l-.14-.54c-.11-.25-.21-.25-.44,0a3.1,3.1,0,0,1-2.41.93c-2,0-3.05-1-3.05-2.64s1.13-2.7,3.2-2.7h2.2v-.1c0-1.07-.68-1.65-2-1.65a4.66,4.66,0,0,0-1.38.18l-.63.19a.19.19,0,0,1-.25-.14l-.38-1.3a.17.17,0,0,1,.14-.24Zm1.61,4.77c-.86,0-1.26.41-1.26,1s.47,1.1,1.32,1.1c1.39,0,2.14-.68,2.14-2v-.13Z"/><path class="cls-2" d="M164.68,50.82c.11.21.22.2.41,0a3.15,3.15,0,0,1,2.43-1.07,3,3,0,0,1,3.22,3.31v5.17a.18.18,0,0,1-.2.19H169a.18.18,0,0,1-.2-.19v-5c0-1.1-.58-1.77-1.53-1.77-1.3,0-2.06.95-2.06,2.65v4.08a.17.17,0,0,1-.19.19h-1.57a.17.17,0,0,1-.19-.19V50.14a.17.17,0,0,1,.19-.19h.88c.13,0,.2,0,.22.17Z"/><path class="cls-2" d="M180.55,58.25a.17.17,0,0,1-.19.19h-.88a.19.19,0,0,1-.21-.16l-.2-.74c0-.15-.17-.19-.35,0a3.19,3.19,0,0,1-2.44,1.09c-2.31,0-3.7-1.72-3.7-4.45s1.48-4.41,3.94-4.41a3.5,3.5,0,0,1,1.57.3l.51.23V46.08a.17.17,0,0,1,.19-.19h1.57a.17.17,0,0,1,.19.19Zm-2.46-6.43a3.46,3.46,0,0,0-1.44-.3c-1.34,0-2.15,1-2.13,2.66s.77,2.68,2.07,2.68,2-1.1,2-2.57V52.07Z"/><path class="cls-2" d="M191.69,46.2c2.56,0,4.08,1.33,4.08,3.54a3.28,3.28,0,0,1-2.34,3.15c-.23.1-.23.19,0,.31a4.09,4.09,0,0,1,1.69,2l1.25,3a.16.16,0,0,1-.16.23h-1.71a.29.29,0,0,1-.23-.14L193.3,56c-.65-1.58-1.46-2.38-3.3-2.38h-1.27v4.59a.17.17,0,0,1-.19.19h-1.61a.17.17,0,0,1-.19-.19V46.4a.18.18,0,0,1,.19-.2ZM191,51.91c1.82,0,2.78-.72,2.78-2A1.84,1.84,0,0,0,191.69,48h-3v3.94Z"/><path class="cls-2" d="M203.54,58.4a7.27,7.27,0,0,1-1.79.23c-2.66,0-4.16-1.72-4.16-4.43s1.52-4.43,4.09-4.43c2.11,0,3.39,1,3.39,2.79,0,1.34-.82,2.11-2.58,2.38l-2.77.42a1.87,1.87,0,0,0,2,1.5,4.9,4.9,0,0,0,1.39-.17l.77-.2a.19.19,0,0,1,.25.14l.35,1.32a.17.17,0,0,1-.14.24Zm-1.35-5c.61-.1.95-.38.95-.84,0-.7-.55-1.07-1.5-1.07-1.16,0-1.95.72-2.09,2.33Z"/><path class="cls-2" d="M209,54.67c-1.46-.36-2.15-1.12-2.15-2.38,0-1.57,1.18-2.52,3.22-2.52a9.17,9.17,0,0,1,2.18.28l.78.2a.18.18,0,0,1,.14.24l-.37,1.31a.18.18,0,0,1-.25.14l-.77-.21a6.85,6.85,0,0,0-1.71-.21c-.81,0-1.28.3-1.28.77s.24.65.79.81l1.76.45c1.53.39,2.21,1.18,2.21,2.44,0,1.64-1.23,2.64-3.3,2.64a9.78,9.78,0,0,1-2.7-.37l-.68-.19a.18.18,0,0,1-.14-.25l.4-1.31a.18.18,0,0,1,.23-.12l.64.17a8.76,8.76,0,0,0,2.25.3c.86,0,1.35-.33,1.35-.87s-.24-.69-.83-.86Z"/><path class="cls-2" d="M216.86,50.84c.07.19.21.18.33,0a3.13,3.13,0,0,1,2.46-1.09c2.31,0,3.7,1.7,3.7,4.41s-1.48,4.45-3.94,4.45a3.72,3.72,0,0,1-1.6-.33l-.48-.21V62a.17.17,0,0,1-.19.19h-1.57a.17.17,0,0,1-.19-.19V50.14a.17.17,0,0,1,.19-.19h.88a.18.18,0,0,1,.21.16Zm1,5.72a3.23,3.23,0,0,0,1.44.3c1.36,0,2.13-1,2.13-2.68s-.77-2.66-2.07-2.66-2,1.09-2,2.61v2.19Z"/><path class="cls-2" d="M233,54.18c0,2.73-1.55,4.45-4.05,4.45s-4.06-1.72-4.06-4.45,1.55-4.41,4.06-4.41S233,51.49,233,54.18Zm-6.18,0c0,1.68.8,2.68,2.13,2.68s2.11-1,2.11-2.68-.81-2.66-2.11-2.66S226.79,52.52,226.79,54.18Z"/><path class="cls-2" d="M236.35,50.82c.1.21.21.2.4,0a3.18,3.18,0,0,1,2.43-1.07,3,3,0,0,1,3.22,3.31v5.17a.17.17,0,0,1-.19.19h-1.57a.17.17,0,0,1-.19-.19v-5c0-1.1-.59-1.77-1.54-1.77-1.3,0-2,.95-2,2.65v4.08a.18.18,0,0,1-.2.19H235.1a.18.18,0,0,1-.2-.19V50.14a.18.18,0,0,1,.2-.19H236a.19.19,0,0,1,.21.17Z"/><path class="cls-2" d="M246.62,54.67c-1.46-.36-2.15-1.12-2.15-2.38,0-1.57,1.18-2.52,3.22-2.52a9.17,9.17,0,0,1,2.18.28l.78.2a.18.18,0,0,1,.14.24l-.37,1.31a.18.18,0,0,1-.25.14l-.77-.21a6.85,6.85,0,0,0-1.71-.21c-.81,0-1.28.3-1.28.77s.24.65.79.81l1.76.45c1.53.39,2.22,1.18,2.22,2.44,0,1.64-1.24,2.64-3.31,2.64a9.65,9.65,0,0,1-2.69-.37l-.69-.19a.18.18,0,0,1-.14-.25l.4-1.31a.18.18,0,0,1,.23-.12l.64.17a8.76,8.76,0,0,0,2.25.3c.86,0,1.35-.33,1.35-.87s-.24-.69-.82-.86Z"/><path class="cls-2" d="M255.48,58.25a.17.17,0,0,1-.19.19h-1.56a.18.18,0,0,1-.2-.19V51.68h-.86a.17.17,0,0,1-.19-.19V50.14a.17.17,0,0,1,.19-.19h2.62a.17.17,0,0,1,.19.19Zm0-11.33a1.17,1.17,0,1,1-1.16-1.17A1.08,1.08,0,0,1,255.47,46.92Z"/><path class="cls-2" d="M259.79,48.64a5.1,5.1,0,0,1-.28,2c-.09.24.07.36.28.17a2.94,2.94,0,0,1,2.33-1c2.3,0,3.69,1.7,3.69,4.41s-1.53,4.45-4.06,4.45a5.41,5.41,0,0,1-2.2-.44L258,57.56a.23.23,0,0,1-.16-.23V46.08a.17.17,0,0,1,.19-.19h1.57a.17.17,0,0,1,.19.19Zm.51,7.92a3.6,3.6,0,0,0,1.45.3c1.33,0,2.12-1,2.12-2.68s-.77-2.66-2-2.66-2.05,1.12-2.05,2.61v2.19Z"/><path class="cls-2" d="M269.7,56.39c0,.3.12.47.35.47h.12c.13,0,.2,0,.25.11l.53,1.24a.18.18,0,0,1-.09.26,2.28,2.28,0,0,1-3.12-2.08V46.08a.18.18,0,0,1,.2-.19h1.56a.18.18,0,0,1,.2.19Z"/><path class="cls-2" d="M278,58.4a7.27,7.27,0,0,1-1.79.23c-2.66,0-4.16-1.72-4.16-4.43s1.52-4.43,4.09-4.43c2.11,0,3.39,1,3.39,2.79,0,1.34-.83,2.11-2.59,2.38l-2.76.42a1.87,1.87,0,0,0,2,1.5,4.9,4.9,0,0,0,1.39-.17l.77-.2a.19.19,0,0,1,.25.14L279,58a.17.17,0,0,1-.14.24Zm-1.35-5c.61-.1,1-.38,1-.84,0-.7-.55-1.07-1.5-1.07-1.16,0-2,.72-2.09,2.33Z"/><path class="cls-2" d="M158,82.25a.17.17,0,0,1-.19.19h-1.6a.18.18,0,0,1-.2-.19V70.4a.18.18,0,0,1,.2-.2h1.6a.18.18,0,0,1,.19.2Z"/><path class="cls-2" d="M162,74.82c.1.21.21.2.4,0a3.18,3.18,0,0,1,2.43-1.07A3,3,0,0,1,168,77.08v5.17a.17.17,0,0,1-.19.19h-1.57a.17.17,0,0,1-.19-.19v-5c0-1.1-.58-1.77-1.53-1.77-1.31,0-2.06,1-2.06,2.65v4.08a.18.18,0,0,1-.2.19h-1.56a.18.18,0,0,1-.2-.19V74.14a.18.18,0,0,1,.2-.19h.88a.19.19,0,0,1,.21.17Z"/><path class="cls-2" d="M171.72,74.82c.11.21.21.2.4,0a3.18,3.18,0,0,1,2.43-1.07,3,3,0,0,1,3.22,3.31v5.17a.17.17,0,0,1-.19.19H176a.17.17,0,0,1-.19-.19v-5c0-1.1-.58-1.77-1.53-1.77-1.3,0-2.06,1-2.06,2.65v4.08a.17.17,0,0,1-.19.19h-1.57a.17.17,0,0,1-.19-.19V74.14a.17.17,0,0,1,.19-.19h.88a.19.19,0,0,1,.21.17Z"/><path class="cls-2" d="M187.73,78.18c0,2.73-1.55,4.45-4,4.45s-4.06-1.72-4.06-4.45,1.55-4.41,4.06-4.41S187.73,75.49,187.73,78.18Zm-6.18,0c0,1.68.79,2.68,2.13,2.68s2.11-1,2.11-2.68-.81-2.66-2.11-2.66S181.55,76.52,181.55,78.18Z"/><path class="cls-2" d="M195.49,78.31a40.05,40.05,0,0,0-1.36,4,.21.21,0,0,1-.23.16H192a.21.21,0,0,1-.23-.16,41.89,41.89,0,0,0-1.36-4l-1.74-4.13a.16.16,0,0,1,.16-.23h1.64a.27.27,0,0,1,.23.14L192,77a17.51,17.51,0,0,1,.85,2.89c0,.19.23.19.28,0A14,14,0,0,1,194,77l1.24-2.94a.27.27,0,0,1,.23-.14h1.64a.16.16,0,0,1,.16.23Z"/><path class="cls-2" d="M199.83,74a6.46,6.46,0,0,1,1.92-.27c2.37,0,3.83,1.23,3.83,3.35v5.13a.17.17,0,0,1-.19.19h-.88a.23.23,0,0,1-.23-.16l-.14-.54c-.1-.25-.21-.25-.44,0a3.09,3.09,0,0,1-2.41.93c-1.95,0-3-1-3-2.64s1.12-2.7,3.2-2.7h2.2v-.1c0-1.07-.69-1.65-2-1.65a4.55,4.55,0,0,0-1.37.18l-.64.19a.18.18,0,0,1-.24-.14l-.39-1.3a.18.18,0,0,1,.14-.24Zm1.62,4.77c-.86,0-1.27.41-1.27,1s.48,1.1,1.32,1.1c1.39,0,2.15-.68,2.15-2v-.13Z"/><path class="cls-2" d="M212.28,74a.18.18,0,0,1,.2.19v1.35a.18.18,0,0,1-.2.19h-2v4.25c0,.6.27.93.69.93a1.39,1.39,0,0,0,.46-.07c.12-.05.21,0,.26.09l.56,1.19c.06.1,0,.19-.08.26a2.6,2.6,0,0,1-1.2.3,2.44,2.44,0,0,1-2.64-2.7V75.68h-.86a.17.17,0,0,1-.19-.19V74.14a.17.17,0,0,1,.19-.19h.86v-2a.2.2,0,0,1,.16-.21l1.56-.53c.15,0,.23,0,.23.16V74Z"/><path class="cls-2" d="M217,82.25a.18.18,0,0,1-.2.19h-1.56a.18.18,0,0,1-.2-.19V75.68h-.86a.17.17,0,0,1-.19-.19V74.14a.17.17,0,0,1,.19-.19h2.62a.18.18,0,0,1,.2.19Zm0-11.33a1.07,1.07,0,0,1-1.16,1.19,1.18,1.18,0,1,1,0-2.36A1.07,1.07,0,0,1,216.93,70.92Z"/><path class="cls-2" d="M227,78.18c0,2.73-1.55,4.45-4.05,4.45s-4.06-1.72-4.06-4.45,1.55-4.41,4.06-4.41S227,75.49,227,78.18Zm-6.18,0c0,1.68.8,2.68,2.13,2.68s2.11-1,2.11-2.68-.8-2.66-2.11-2.66S220.81,76.52,220.81,78.18Z"/><path class="cls-2" d="M230.37,74.82c.1.21.21.2.4,0a3.18,3.18,0,0,1,2.43-1.07,3,3,0,0,1,3.22,3.31v5.17a.17.17,0,0,1-.19.19h-1.57a.17.17,0,0,1-.19-.19v-5c0-1.1-.59-1.77-1.53-1.77-1.31,0-2.06,1-2.06,2.65v4.08a.18.18,0,0,1-.2.19h-1.56a.18.18,0,0,1-.2-.19V74.14a.18.18,0,0,1,.2-.19H230a.19.19,0,0,1,.21.17Z"/><path class="cls-2" d="M243,72.81A2.84,2.84,0,0,1,246,69.7a3.25,3.25,0,0,1,1.16.21l.32.1a.19.19,0,0,1,.12.25l-.42,1.29a.17.17,0,0,1-.23.12l-.28-.08a1.7,1.7,0,0,0-.67-.13c-.68,0-1.11.51-1.11,1.35V74h2a.18.18,0,0,1,.2.19v1.35a.18.18,0,0,1-.2.19h-2v6.57a.17.17,0,0,1-.19.19h-1.57a.17.17,0,0,1-.19-.19V75.68h-.86a.17.17,0,0,1-.19-.19V74.14a.17.17,0,0,1,.19-.19H243Z"/><path class="cls-2" d="M256.4,78.18c0,2.73-1.55,4.45-4,4.45s-4.06-1.72-4.06-4.45,1.55-4.41,4.06-4.41S256.4,75.49,256.4,78.18Zm-6.17,0c0,1.68.79,2.68,2.12,2.68s2.12-1,2.12-2.68-.81-2.66-2.12-2.66S250.23,76.52,250.23,78.18Z"/><path class="cls-2" d="M263.24,75.33a.17.17,0,0,1-.19.19c-1.92.09-2.76,1.42-2.76,4.64v2.09a.18.18,0,0,1-.2.19h-1.56a.18.18,0,0,1-.2-.19V74.14a.18.18,0,0,1,.2-.19h.88a.22.22,0,0,1,.23.16l.28,1c.1.2.19.23.35.06a3.3,3.3,0,0,1,2.78-1.39.18.18,0,0,1,.19.2Z"/><path class="cls-2" d="M270,74a6.41,6.41,0,0,1,1.92-.27c2.37,0,3.83,1.23,3.83,3.35v5.13a.17.17,0,0,1-.19.19h-.88a.21.21,0,0,1-.23-.16l-.14-.54c-.11-.25-.21-.25-.44,0a3.1,3.1,0,0,1-2.41.93c-1.95,0-3-1-3-2.64s1.13-2.7,3.21-2.7h2.19v-.1c0-1.07-.68-1.65-2-1.65a4.66,4.66,0,0,0-1.38.18l-.63.19a.18.18,0,0,1-.24-.14l-.39-1.3a.17.17,0,0,1,.14-.24Zm1.62,4.77c-.87,0-1.27.41-1.27,1s.47,1.1,1.32,1.1c1.39,0,2.14-.68,2.14-2v-.13Z"/><path class="cls-2" d="M156.23,100.75c-2.17-.81-2.94-1.72-2.94-3.41,0-2.1,1.62-3.31,4.15-3.31a8.79,8.79,0,0,1,2.74.44l1,.33c.12,0,.17.14.12.24l-.48,1.33a.2.2,0,0,1-.24.13l-.94-.3a7.24,7.24,0,0,0-2.23-.37c-1.27,0-2.13.6-2.13,1.51,0,.71.44,1.22,1.71,1.69l1.95.72c2.06.77,3,1.63,3,3.38,0,2.26-1.69,3.5-4.41,3.5a9.78,9.78,0,0,1-3.4-.59l-.91-.3c-.13,0-.18-.14-.13-.25l.46-1.35a.18.18,0,0,1,.25-.1l1,.31a8.61,8.61,0,0,0,2.77.46c1.3,0,2.39-.49,2.39-1.68,0-.77-.76-1.28-1.74-1.65Z"/><path class="cls-2" d="M170,105.56c-.1-.21-.21-.19-.4,0a3.18,3.18,0,0,1-2.43,1.07,3,3,0,0,1-3.22-3.31V98.14a.17.17,0,0,1,.19-.19h1.57a.17.17,0,0,1,.19.19v5c0,1.11.58,1.77,1.53,1.77,1.3,0,2.06-.94,2.06-2.64V98.14a.17.17,0,0,1,.19-.19h1.57a.17.17,0,0,1,.19.19v8.11a.17.17,0,0,1-.19.19h-.88a.19.19,0,0,1-.21-.18Z"/><path class="cls-2" d="M175.73,102.67c-1.46-.36-2.14-1.12-2.14-2.38,0-1.57,1.18-2.52,3.22-2.52a9.17,9.17,0,0,1,2.18.28l.77.2a.17.17,0,0,1,.14.24l-.37,1.31a.17.17,0,0,1-.24.14l-.78-.21a6.77,6.77,0,0,0-1.7-.21c-.81,0-1.29.3-1.29.77s.25.65.79.81l1.76.45c1.53.39,2.22,1.18,2.22,2.44,0,1.64-1.23,2.64-3.31,2.64a9.71,9.71,0,0,1-2.69-.37l-.69-.19a.19.19,0,0,1-.14-.25l.41-1.31a.17.17,0,0,1,.23-.12l.63.17a8.82,8.82,0,0,0,2.25.3c.86,0,1.36-.33,1.36-.87s-.25-.69-.83-.86Z"/><path class="cls-2" d="M186.57,98a.17.17,0,0,1,.19.19v1.35a.17.17,0,0,1-.19.19h-2v4.25c0,.6.26.93.69.93a1.37,1.37,0,0,0,.45-.07c.13-.05.21,0,.27.09l.56,1.19a.19.19,0,0,1-.09.26,2.56,2.56,0,0,1-1.19.3,2.44,2.44,0,0,1-2.64-2.7V99.68h-.87a.17.17,0,0,1-.19-.19V98.14a.17.17,0,0,1,.19-.19h.87v-2a.2.2,0,0,1,.15-.21l1.57-.53c.14,0,.23,0,.23.16V98Z"/><path class="cls-2" d="M189.54,98a6.46,6.46,0,0,1,1.92-.27c2.37,0,3.83,1.23,3.83,3.35v5.13a.17.17,0,0,1-.19.19h-.88a.23.23,0,0,1-.23-.16l-.14-.54c-.1-.25-.21-.25-.44,0a3.07,3.07,0,0,1-2.41.93c-1.95,0-3-1-3-2.64s1.12-2.7,3.2-2.7h2.2v-.1c0-1.07-.69-1.65-2-1.65a4.55,4.55,0,0,0-1.37.18l-.63.19a.19.19,0,0,1-.25-.14l-.39-1.3a.18.18,0,0,1,.14-.24Zm1.62,4.77c-.86,0-1.27.41-1.27,1s.48,1.1,1.32,1.1c1.39,0,2.15-.68,2.15-2v-.13Z"/><path class="cls-2" d="M200,106.25a.18.18,0,0,1-.2.19h-1.56a.18.18,0,0,1-.2-.19V99.68h-.86a.17.17,0,0,1-.19-.19V98.14a.17.17,0,0,1,.19-.19h2.62a.18.18,0,0,1,.2.19Zm0-11.33a1.07,1.07,0,0,1-1.16,1.19,1.18,1.18,0,1,1,0-2.36A1.07,1.07,0,0,1,200,94.92Z"/><path class="cls-2" d="M203.82,98.82c.11.21.22.2.41,0a3.15,3.15,0,0,1,2.43-1.07,3,3,0,0,1,3.22,3.31v5.17a.18.18,0,0,1-.2.19h-1.56a.18.18,0,0,1-.2-.19v-5c0-1.1-.58-1.77-1.53-1.77-1.3,0-2.06,1-2.06,2.65v4.08a.17.17,0,0,1-.19.19h-1.56a.18.18,0,0,1-.2-.19V98.14a.18.18,0,0,1,.2-.19h.88a.19.19,0,0,1,.21.17Z"/><path class="cls-2" d="M213.22,98a6.41,6.41,0,0,1,1.92-.27c2.37,0,3.83,1.23,3.83,3.35v5.13a.17.17,0,0,1-.19.19h-.88a.21.21,0,0,1-.23-.16l-.14-.54c-.11-.25-.21-.25-.44,0a3.1,3.1,0,0,1-2.41.93c-2,0-3.05-1-3.05-2.64s1.13-2.7,3.21-2.7H217v-.1c0-1.07-.69-1.65-2-1.65a4.66,4.66,0,0,0-1.38.18l-.63.19a.18.18,0,0,1-.24-.14l-.39-1.3a.17.17,0,0,1,.14-.24Zm1.62,4.77c-.87,0-1.27.41-1.27,1s.47,1.1,1.32,1.1c1.39,0,2.15-.68,2.15-2v-.13Z"/><path class="cls-2" d="M223.16,96.64a5.09,5.09,0,0,1-.29,2c-.08.24.08.36.29.17a2.9,2.9,0,0,1,2.32-1c2.3,0,3.69,1.7,3.69,4.41s-1.53,4.45-4.06,4.45a5.44,5.44,0,0,1-2.2-.44l-1.55-.63a.25.25,0,0,1-.16-.23V94.08a.18.18,0,0,1,.2-.19H223a.18.18,0,0,1,.2.19Zm.51,7.92a3.52,3.52,0,0,0,1.44.3c1.34,0,2.13-1,2.13-2.68s-.78-2.66-2-2.66-2.06,1.12-2.06,2.61v2.19Z"/><path class="cls-2" d="M233.06,104.39c0,.3.12.47.35.47h.12c.13,0,.2,0,.25.11l.53,1.24a.18.18,0,0,1-.09.26,2.27,2.27,0,0,1-3.11-2.08V94.08a.17.17,0,0,1,.19-.19h1.57a.17.17,0,0,1,.19.19Z"/><path class="cls-2" d="M241.36,106.4a7.27,7.27,0,0,1-1.79.23c-2.66,0-4.15-1.72-4.15-4.43s1.51-4.43,4.08-4.43c2.11,0,3.39,1,3.39,2.79,0,1.34-.82,2.11-2.58,2.38l-2.77.42a1.87,1.87,0,0,0,2,1.5,4.9,4.9,0,0,0,1.39-.17l.77-.2a.19.19,0,0,1,.25.14l.35,1.32a.17.17,0,0,1-.14.24Zm-1.35-5c.61-.1,1-.38,1-.84,0-.7-.55-1.07-1.5-1.07-1.16,0-2,.72-2.09,2.33Z"/><path class="cls-2" d="M147.07,118.2c3.34,0,5.36,2.37,5.36,6.13s-2.06,6.11-5.36,6.11H143a.17.17,0,0,1-.19-.19V118.4a.18.18,0,0,1,.19-.2Zm-2.33,10.47h2.33c2.07,0,3.32-1.59,3.32-4.34s-1.25-4.36-3.32-4.36h-2.33Z"/><path class="cls-2" d="M157.07,130.25a.17.17,0,0,1-.19.19h-1.56a.18.18,0,0,1-.2-.19v-6.57h-.86a.17.17,0,0,1-.19-.19v-1.35a.17.17,0,0,1,.19-.19h2.62a.17.17,0,0,1,.19.19Zm0-11.33a1.17,1.17,0,1,1-1.16-1.17A1.08,1.08,0,0,1,157.06,118.92Z"/><path class="cls-2" d="M161.17,132.43a6.12,6.12,0,0,0,1.52.19,2.4,2.4,0,0,0,2.63-1.87c.06-.77.07-.71.09-1.08,0-.13-.09-.21-.24-.06a3.21,3.21,0,0,1-2.43,1c-2.32,0-3.73-1.72-3.73-4.39s1.53-4.47,4.1-4.47a5.76,5.76,0,0,1,2.16.41l1.57.64a.22.22,0,0,1,.16.21v7.34c0,2.59-1.54,4-4.23,4a7.81,7.81,0,0,1-1.91-.23l-.87-.25a.18.18,0,0,1-.14-.24l.41-1.3a.18.18,0,0,1,.23-.12Zm3.35-8.61a3.41,3.41,0,0,0-1.43-.3c-1.35,0-2.15,1-2.15,2.66s.72,2.68,2,2.68,2.07-1,2.07-2.64v-2.15Z"/><path class="cls-2" d="M171.74,130.25a.17.17,0,0,1-.19.19H170a.18.18,0,0,1-.2-.19v-6.57h-.86a.17.17,0,0,1-.19-.19v-1.35a.17.17,0,0,1,.19-.19h2.62a.17.17,0,0,1,.19.19Zm0-11.33a1.17,1.17,0,1,1-1.16-1.17A1.08,1.08,0,0,1,171.73,118.92Z"/><path class="cls-2" d="M178.64,122a.17.17,0,0,1,.19.19v1.35a.17.17,0,0,1-.19.19h-2v4.25c0,.6.26.93.69.93a1.37,1.37,0,0,0,.45-.07c.13,0,.21,0,.27.09l.56,1.19a.19.19,0,0,1-.09.26,2.53,2.53,0,0,1-1.19.3,2.44,2.44,0,0,1-2.64-2.7v-4.25h-.87a.17.17,0,0,1-.19-.19v-1.35a.17.17,0,0,1,.19-.19h.87v-2a.2.2,0,0,1,.15-.21l1.57-.53c.14,0,.23,0,.23.16V122Z"/><path class="cls-2" d="M181.61,122a6.46,6.46,0,0,1,1.92-.27c2.38,0,3.84,1.23,3.84,3.35v5.13a.18.18,0,0,1-.2.19h-.88a.23.23,0,0,1-.23-.16l-.14-.54c-.1-.25-.21-.25-.44,0a3.07,3.07,0,0,1-2.41.93c-1.95,0-3-1-3-2.64s1.13-2.7,3.2-2.7h2.2v-.1c0-1.07-.69-1.65-2-1.65a4.55,4.55,0,0,0-1.37.18l-.63.19a.19.19,0,0,1-.25-.14l-.39-1.3a.18.18,0,0,1,.14-.24Zm1.62,4.77c-.86,0-1.27.41-1.27,1s.48,1.1,1.32,1.1c1.39,0,2.15-.68,2.15-2v-.13Z"/><path class="cls-2" d="M191.55,128.39c0,.3.12.47.35.47H192c.12,0,.19,0,.24.11l.53,1.24a.18.18,0,0,1-.09.26,2,2,0,0,1-.81.16,2.08,2.08,0,0,1-2.3-2.24V118.08a.17.17,0,0,1,.19-.19h1.57a.17.17,0,0,1,.19.19Z"/><path class="cls-2" d="M205.32,123.28a.18.18,0,0,1,.2.19v1.37a.18.18,0,0,1-.2.19h-4.89v3.64h6.27a.17.17,0,0,1,.19.19v1.39a.17.17,0,0,1-.19.19h-8.06a.18.18,0,0,1-.2-.19V118.4a.18.18,0,0,1,.2-.2h8.06c.14,0,.21.09.17.21l-.39,1.4a.2.2,0,0,1-.22.16h-5.83v3.31Z"/><path class="cls-2" d="M214.24,130.4a6.49,6.49,0,0,1-1.64.23c-2.69,0-4.16-1.72-4.16-4.45s1.46-4.41,4.22-4.41a5.7,5.7,0,0,1,1.51.21l.76.21a.19.19,0,0,1,.14.25l-.41,1.31a.16.16,0,0,1-.23.12l-.59-.15a4.09,4.09,0,0,0-1.18-.2c-1.57,0-2.29,1-2.29,2.65s.76,2.69,2.25,2.69a5.3,5.3,0,0,0,1.3-.19l.58-.18a.19.19,0,0,1,.25.13l.41,1.31a.18.18,0,0,1-.14.24Z"/><path class="cls-2" d="M224.66,126.18c0,2.73-1.55,4.45-4,4.45s-4.07-1.72-4.07-4.45,1.55-4.41,4.07-4.41S224.66,123.49,224.66,126.18Zm-6.18,0c0,1.68.79,2.68,2.13,2.68s2.11-1,2.11-2.68-.81-2.66-2.11-2.66S218.48,124.52,218.48,126.18Z"/><path class="cls-2" d="M228,122.82c.11.21.21.2.41,0a3.14,3.14,0,0,1,2.42-1.07,3,3,0,0,1,3.22,3.31v5.17a.17.17,0,0,1-.19.19h-1.57a.17.17,0,0,1-.19-.19v-5c0-1.1-.58-1.77-1.53-1.77-1.3,0-2.06,1-2.06,2.65v4.08a.17.17,0,0,1-.19.19h-1.57a.17.17,0,0,1-.19-.19v-8.11a.17.17,0,0,1,.19-.19h.88c.13,0,.2,0,.21.17Z"/><path class="cls-2" d="M244,126.18c0,2.73-1.55,4.45-4,4.45s-4.06-1.72-4.06-4.45,1.55-4.41,4.06-4.41S244,123.49,244,126.18Zm-6.18,0c0,1.68.8,2.68,2.13,2.68s2.11-1,2.11-2.68-.81-2.66-2.11-2.66S237.86,124.52,237.86,126.18Z"/><path class="cls-2" d="M247.42,122.81c.1.21.21.21.42,0a2.93,2.93,0,0,1,2.29-1,2.72,2.72,0,0,1,2.28,1.18c.23.24.39.19.6,0a3,3,0,0,1,2.41-1.18c2,0,3.1,1.25,3.1,3.31v5.17a.18.18,0,0,1-.2.19h-1.58a.17.17,0,0,1-.19-.19v-5c0-1.1-.46-1.77-1.39-1.77-1.34,0-1.94,1-1.94,2.65v4.08a.17.17,0,0,1-.19.19h-1.58a.18.18,0,0,1-.2-.19v-5c0-1.08-.49-1.75-1.39-1.75-1.35,0-1.93,1-1.93,2.65v4.08a.18.18,0,0,1-.2.19h-1.56a.18.18,0,0,1-.2-.19v-8.11a.18.18,0,0,1,.2-.19h.88a.19.19,0,0,1,.21.17Z"/><path class="cls-2" d="M263.55,134a.21.21,0,0,1-.21.16h-1.62a.16.16,0,0,1-.16-.23l.93-2.2c.48-1.25.3-2.29-.33-3.94l-2.34-5.65c-.06-.14,0-.23.16-.23h1.63a.24.24,0,0,1,.23.14l1.39,3.31A14.64,14.64,0,0,1,264,128c0,.18.23.18.28,0a17.73,17.73,0,0,1,.76-2.53l1.37-3.31a.24.24,0,0,1,.23-.14h1.64a.16.16,0,0,1,.16.23Z"/><circle class="cls-3" cx="74.87" cy="74.87" r="72.87"/><path class="cls-1" d="M74.87,4A70.87,70.87,0,1,1,4,74.87,70.87,70.87,0,0,1,74.87,4m0-4a74.87,74.87,0,1,0,74.86,74.87A74.95,74.95,0,0,0,74.87,0Z"/><path class="cls-2" d="M33.31,30.22c.18.47.54.43.85,0a8,8,0,0,1,6.2-2.67c5.8,0,9.3,4.18,9.3,10.85s-3.72,10.94-9.92,10.94a9.31,9.31,0,0,1-4-.82l-1.2-.51v9.64a.44.44,0,0,1-.49.47H30.08a.44.44,0,0,1-.49-.47V28.5a.44.44,0,0,1,.49-.48H32.3a.46.46,0,0,1,.53.39ZM35.79,44.3a8.29,8.29,0,0,0,3.64.73c3.41,0,5.36-2.45,5.36-6.59s-1.95-6.54-5.23-6.54-5.09,2.67-5.09,6.41V43.7Z"/><path class="cls-2" d="M56.23,28.24a17,17,0,0,1,4.83-.65c6,0,9.66,3,9.66,8.23V48.43a.44.44,0,0,1-.49.48H68a.54.54,0,0,1-.58-.39l-.35-1.34c-.27-.6-.53-.6-1.11-.08a7.93,7.93,0,0,1-6.07,2.28c-4.92,0-7.66-2.45-7.66-6.5s2.83-6.63,8.06-6.63h5.54V36c0-2.63-1.73-4.05-5-4.05a12.44,12.44,0,0,0-3.45.43l-1.6.48a.47.47,0,0,1-.62-.35l-1-3.19a.44.44,0,0,1,.35-.6ZM60.31,40c-2.17,0-3.19,1-3.19,2.46,0,1.68,1.2,2.71,3.32,2.71,3.5,0,5.41-1.68,5.41-4.87V40Z"/><path class="cls-2" d="M88.71,31.42a.44.44,0,0,1-.49.48c-4.83.21-7,3.49-7,11.41v5.12a.44.44,0,0,1-.48.48h-4a.44.44,0,0,1-.48-.48V28.5a.43.43,0,0,1,.48-.48h2.22a.54.54,0,0,1,.58.39l.7,2.45c.27.48.49.56.89.13a8.31,8.31,0,0,1,7-3.4.44.44,0,0,1,.49.48Z"/><path class="cls-2" d="M100.27,48.43a.44.44,0,0,1-.49.48H95.84a.44.44,0,0,1-.49-.48V32.29H93.18a.44.44,0,0,1-.49-.48V28.5a.44.44,0,0,1,.49-.48h6.6a.44.44,0,0,1,.49.48Zm0-27.86A2.67,2.67,0,0,1,97.3,23.5a2.7,2.7,0,0,1-3-2.93,2.69,2.69,0,0,1,3-2.88A2.65,2.65,0,0,1,100.22,20.57Z"/><path class="cls-2" d="M111.12,39.65c-3.68-.91-5.4-2.76-5.4-5.86,0-3.87,3-6.2,8.1-6.2a22.45,22.45,0,0,1,5.49.69l2,.47a.46.46,0,0,1,.36.61l-.93,3.23a.46.46,0,0,1-.62.34l-1.95-.52a17.77,17.77,0,0,0-4.3-.51c-2,0-3.23.73-3.23,1.89,0,1,.62,1.6,2,2L117,36.89c3.86,1,5.58,2.89,5.58,6,0,4-3.1,6.5-8.32,6.5a25.54,25.54,0,0,1-6.78-.9L105.76,48a.44.44,0,0,1-.35-.6l1-3.23a.42.42,0,0,1,.57-.3l1.6.43a23.71,23.71,0,0,0,5.67.73c2.17,0,3.41-.82,3.41-2.15,0-1-.62-1.68-2.09-2.11Z"/><g class="cls-4"><path class="cls-2" d="M70.62,123.16a.74.74,0,0,1-.82.79H67.47a.73.73,0,0,1-.81-.79v-6.9c-.1-.89-.61-1.09-1.22-.1a19.1,19.1,0,0,1-16.14,8.78c-12.79,0-20.41-9.38-20.41-24.48,0-15.29,7.92-24.37,21.42-24.47a28.83,28.83,0,0,1,12.9,2.66l3.14,1.48V55.56a.74.74,0,0,1,.81-.79H69.8a.74.74,0,0,1,.82.79ZM61.78,82.31A25.6,25.6,0,0,0,50.41,80c-10.76.09-17.35,7.59-17.25,20.42.1,12.64,6.19,20.43,16.24,20.43,11.37,0,16.95-9.67,16.95-22.2V84.48Z"/></g><path class="cls-1" d="M115.51,80.1a.5.5,0,0,0-.62-.34,128.53,128.53,0,0,0-18.4,7.4A25.24,25.24,0,0,1,100.07,83c4.44-3.92,6-3.3,6-3.3a.5.5,0,0,0,.54-.46.49.49,0,0,0-.45-.54c-.13,0-2-.69-6.78,3.55a30.09,30.09,0,0,0-4.87,6c-.36.21-.71.42-1,.64A41.22,41.22,0,0,0,87.21,94,16.22,16.22,0,0,1,89.12,88c4.18-7.41,6.08-8,6.11-8a.5.5,0,0,0-.35-.94c-.14,0-2.23.64-6.63,8.44a17.38,17.38,0,0,0-2.14,7.66c-1.32,1.35-2.55,2.7-3.62,3.93a15.65,15.65,0,0,0-4.11,5.06v0a.3.3,0,0,0,0,.1.27.27,0,0,0,0,.09.29.29,0,0,0,0,.09.32.32,0,0,0,0,.09.35.35,0,0,0,0,.08l.07.07,0,0h0l.08,0a.47.47,0,0,0,.17,0h0a.46.46,0,0,0,.25-.08s0,0,.06,0a.31.31,0,0,0,.09-.07s1.63-2.17,4-4.88a34.68,34.68,0,0,1,4.42-3.3c7.41-4.71,18.74,1.4,18.86,1.47A.5.5,0,1,0,107,97c-.54-.3-12-6.47-19.88-1.43h0v0A43.07,43.07,0,0,1,94,89.73l.55-.32a2.31,2.31,0,0,0,.59-.29c7.39-3.32,17,3.19,17.14,3.27a.51.51,0,0,0,.7-.14.5.5,0,0,0-.14-.69c-.4-.27-7.23-4.92-14.37-4.3a136.22,136.22,0,0,1,16.67-6.54A.51.51,0,0,0,115.51,80.1Z"/><path class="cls-2" d="M113.57,122.38a.65.65,0,0,0,.53-1l-.75-2.27a1,1,0,0,0-1.17-.59l-2.57.78A36,36,0,0,1,99,120.61c-9.85,0-16.27-5.53-17.77-15.3l22.91-3.56c9.1-1.48,11.3-5.3,13.58-11.94,1.37-4,2.77-14.3,2.77-14.3s-15.29.2-21.49.2c-14,0-22.68,9.36-22.68,24.46S84.88,124.64,99,124.64a42.67,42.67,0,0,0,11.88-1.57ZM80.81,101.46C80.92,87,87.56,79.74,99,79.74c5.25,0,15.88.33,15.88.33s-.76,7.2-1.64,9.74c-1.47,4.24-3.43,7-10,8.09Z"/></g></g></svg>